<svg preserveAspectRatio="none" overflow="visible" style="display: block;" width="20" height="20" viewBox="0 0 20 20" fill="none" xmlns="http://www.w3.org/2000/svg">
<g id="solar:plain-bold">
<path id="Vector" d="M15.53 13.0583L16.96 8.76667C18.21 5.01833 18.835 3.14417 17.845 2.155C16.855 1.16583 14.9817 1.79 11.2325 3.04L6.94167 4.47C3.91667 5.47833 2.40417 5.98333 1.975 6.7225C1.77451 7.06807 1.66891 7.46048 1.66891 7.86C1.66891 8.25952 1.77451 8.65193 1.975 8.9975C2.40417 9.7375 3.91667 10.2417 6.94167 11.2508C7.31667 11.3758 7.73917 11.2858 8.02 11.0083L12.6083 6.4625C12.6686 6.397 12.7416 6.34442 12.8228 6.30793C12.904 6.27144 12.9918 6.2518 13.0808 6.25021C13.1699 6.24861 13.2583 6.26509 13.3407 6.29865C13.4232 6.3322 13.498 6.38214 13.5606 6.44543C13.6233 6.50873 13.6724 6.58407 13.7051 6.66689C13.7377 6.74972 13.7532 6.83831 13.7507 6.92731C13.7481 7.01631 13.7276 7.10386 13.6902 7.18468C13.6528 7.2655 13.5995 7.3379 13.5333 7.3975L9.02 11.8692C8.86969 12.0232 8.76492 12.2158 8.71727 12.4257C8.66962 12.6355 8.68094 12.8545 8.75 13.0583C9.75833 16.0833 10.2633 17.5967 11.0025 18.0267C11.3482 18.2273 11.7407 18.333 12.1404 18.333C12.5401 18.333 12.9327 18.2273 13.2783 18.0267C14.0175 17.5967 14.5208 16.0842 15.53 13.0583Z" fill="white"/>
</g>
</svg>
