<svg preserveAspectRatio="none" overflow="visible" style="display: block;" width="56" height="56" viewBox="0 0 56 56" fill="none" xmlns="http://www.w3.org/2000/svg">
<g id="Phoenix">
<path d="M0 28C0 12.536 12.536 0 28 0V0C43.464 0 56 12.536 56 28V28C56 43.464 43.464 56 28 56V56C12.536 56 0 43.464 0 28V28Z" fill="#333333"/>
<path id="Vector" d="M12.1612 43.839C13.1942 44.8721 14.8003 44.9589 16.0189 44.0272C27.0144 35.8724 29.653 35.8449 39.9103 44.0095C41.1009 44.942 42.8074 44.8712 43.8395 43.8391C44.886 42.7926 44.9426 41.1292 44.0386 39.9098C36.1608 29.4806 36.1455 27.2292 44.042 16.0041C44.9162 14.7569 44.8582 13.1793 43.8396 12.1607C42.7923 11.1134 41.2003 11.0409 39.9532 11.9438C29.0006 20.1131 26.362 20.1406 16.1191 11.9904C14.8853 11.0434 13.2219 11.1 12.1611 12.1607C11.129 13.1928 11.0438 14.8275 11.9765 16.0756C19.8398 26.5478 19.8552 28.7705 11.9299 39.9671C11.0701 41.2573 11.1568 42.8347 12.1612 43.839Z" fill="url(#paint0_linear_0_849)" fill-opacity="0.32"/>
<foreignObject x="-30.4" y="-30.4" width="116.8" height="116.8"><div xmlns="http://www.w3.org/1999/xhtml" style="backdrop-filter:blur(18px);clip-path:url(#bgblur_0_0_849_clip_path);height:100%;width:100%"></div></foreignObject><path id="Vector_2" data-figma-bg-blur-radius="36" d="M5.6 28C5.6 29.4609 6.67428 30.658 8.19476 30.8609C21.7361 32.8695 23.6213 34.7159 25.1011 47.7421C25.2836 49.2434 26.5403 50.4 27.9999 50.4C29.4799 50.4 30.6961 49.2638 30.9191 47.7623C32.7232 34.8174 34.3044 33.2146 47.8254 30.8609C49.3255 30.5971 50.4 29.4405 50.4 28C50.4 26.5189 49.3255 25.342 47.8052 25.0986C34.2841 23.1305 32.3988 21.2841 30.9191 8.27823C30.7162 6.7362 29.5 5.6 27.9999 5.6C26.5403 5.6 25.3241 6.69563 25.1011 8.23767C23.2564 21.2028 21.6956 22.7854 8.1744 25.0986C6.65412 25.4029 5.6 26.5797 5.6 28Z" fill="url(#paint1_linear_0_849)" fill-opacity="0.8"/>
</g>
<defs>
<clipPath id="bgblur_0_0_849_clip_path" transform="translate(30.4 30.4)"><path d="M5.6 28C5.6 29.4609 6.67428 30.658 8.19476 30.8609C21.7361 32.8695 23.6213 34.7159 25.1011 47.7421C25.2836 49.2434 26.5403 50.4 27.9999 50.4C29.4799 50.4 30.6961 49.2638 30.9191 47.7623C32.7232 34.8174 34.3044 33.2146 47.8254 30.8609C49.3255 30.5971 50.4 29.4405 50.4 28C50.4 26.5189 49.3255 25.342 47.8052 25.0986C34.2841 23.1305 32.3988 21.2841 30.9191 8.27823C30.7162 6.7362 29.5 5.6 27.9999 5.6C26.5403 5.6 25.3241 6.69563 25.1011 8.23767C23.2564 21.2028 21.6956 22.7854 8.1744 25.0986C6.65412 25.4029 5.6 26.5797 5.6 28Z"/>
</clipPath><linearGradient id="paint0_linear_0_849" x1="43.8398" y1="12.1609" x2="-4.19592" y2="60.1965" gradientUnits="userSpaceOnUse">
<stop offset="0.313079" stop-color="white"/>
<stop offset="1" stop-color="white" stop-opacity="0"/>
</linearGradient>
<linearGradient id="paint1_linear_0_849" x1="50.4" y1="28" x2="-17.5327" y2="28" gradientUnits="userSpaceOnUse">
<stop offset="0.313079" stop-color="white"/>
<stop offset="1" stop-color="white" stop-opacity="0"/>
</linearGradient>
</defs>
</svg>
